<?xml version="1.0" standalone="no"?>
<!DOCTYPE svg PUBLIC "-//W3C//DTD SVG 20010904//EN"
 "http://www.w3.org/TR/2001/REC-SVG-20010904/DTD/svg10.dtd">
<svg version="1.0" xmlns="http://www.w3.org/2000/svg"
 width="323.000000pt" height="323.000000pt" viewBox="0 0 323.000000 323.000000"
 preserveAspectRatio="xMidYMid meet">
<metadata>
Created by potrace 1.14, written by Peter Selinger 2001-2017
</metadata>
<g transform="translate(0.000000,323.000000) scale(0.100000,-0.100000)"
fill="#000000" stroke="none">
<path d="M1290 2910 c0 -5 4 -10 9 -10 6 0 13 5 16 10 3 6 -1 10 -9 10 -9 0
-16 -4 -16 -10z"/>
<path d="M1518 2913 c7 -3 16 -2 19 1 4 3 -2 6 -13 5 -11 0 -14 -3 -6 -6z"/>
<path d="M1232 2897 c-15 -18 -26 -67 -15 -67 19 0 54 47 47 63 -7 20 -18 22
-32 4z"/>
<path d="M1438 2903 c-10 -2 -18 -9 -18 -14 0 -15 43 -7 48 9 4 12 0 13 -30 5z"/>
<path d="M1798 2903 c-10 -2 -18 -11 -18 -20 0 -10 6 -14 20 -10 11 3 20 1 20
-4 0 -5 8 -13 18 -16 9 -4 23 -13 31 -20 7 -8 22 -11 32 -8 14 5 17 2 13 -8
-4 -12 -12 -13 -37 -6 -18 5 -35 9 -38 9 -4 0 -7 -58 -7 -130 1 -91 -3 -134
-12 -145 -18 -22 -4 -31 18 -12 14 13 25 15 51 7 18 -5 39 -14 46 -20 6 -5 23
-9 36 -8 13 0 47 -11 74 -26 28 -15 71 -36 96 -45 54 -21 57 -23 149 -115 56
-55 69 -73 64 -91 -4 -18 -1 -23 20 -27 15 -3 29 -1 32 3 3 5 -2 9 -10 9 -24
0 -19 28 9 46 14 9 23 19 20 23 -8 13 27 53 41 47 7 -3 16 0 20 6 4 7 3 8 -4
4 -7 -4 -12 -3 -12 2 0 9 -59 42 -75 42 -4 0 -4 -12 -1 -26 5 -20 2 -32 -14
-46 -20 -19 -22 -19 -35 -2 -7 10 -11 24 -8 31 3 7 -4 30 -15 51 -26 50 -13
70 44 67 46 -2 67 -12 59 -26 -8 -13 43 -31 67 -23 16 5 19 14 17 63 -1 32 1
63 4 69 4 5 3 12 -3 14 -6 2 -11 22 -13 45 -1 33 -6 43 -19 43 -10 0 -23 -10
-29 -22 -10 -19 -13 -20 -23 -6 -6 8 -21 18 -34 22 -17 6 -21 13 -17 27 5 14
2 17 -8 13 -8 -3 -24 5 -36 17 -12 13 -21 17 -21 11 0 -7 -9 -12 -20 -12 -13
0 -20 7 -20 20 0 22 -7 25 -30 10 -10 -6 -11 -10 -2 -10 6 0 12 -4 12 -9 0
-11 -66 -22 -86 -14 -19 7 -8 23 17 23 10 0 19 7 19 15 0 8 4 15 8 15 5 0 9 7
9 15 0 18 -2 18 -28 5 -14 -8 -25 -6 -43 6 -14 8 -30 13 -35 10 -5 -4 -13 -2
-16 4 -4 6 -15 8 -26 5 -11 -4 -19 -2 -19 4 0 6 -13 11 -29 11 -17 0 -46 10
-67 22 -20 12 -53 24 -73 27 -24 4 -39 13 -46 29 -5 12 -12 21 -15 21 -3 -1
-13 -3 -22 -6z m228 -130 c1 -24 -16 -28 -66 -14 -19 5 -22 9 -11 16 12 7 11
10 -5 16 -12 5 -1 8 31 6 44 -2 50 -5 51 -24z m99 -14 c-4 -5 -2 -9 3 -9 6 0
8 -8 5 -19 -3 -12 -11 -17 -23 -14 -10 3 -16 11 -14 18 3 7 -3 16 -13 20 -16
7 -15 9 7 15 28 8 43 3 35 -11z m-98 -45 c-3 -3 -12 -4 -19 -1 -8 3 -5 6 6 6
11 1 17 -2 13 -5z m108 -44 c13 -6 15 -9 5 -9 -8 0 -22 4 -30 9 -18 12 -2 12
25 0z m193 -14 c3 -15 1 -16 -18 -6 -12 6 -34 9 -48 5 -18 -4 -24 -3 -17 3 10
11 52 21 70 17 6 -1 12 -10 13 -19z m47 -26 c3 -5 -1 -10 -9 -10 -9 0 -16 5
-16 10 0 6 4 10 9 10 6 0 13 -4 16 -10z m-340 -31 c25 -7 22 -7 -15 -4 -25 2
-46 4 -47 4 -2 1 -3 6 -3 12 0 7 7 8 18 4 9 -4 31 -11 47 -16z m30 -29 c10 8
13 6 11 -6 0 -11 9 -20 24 -24 21 -6 22 -8 8 -14 -9 -4 -27 -1 -40 7 -13 8
-40 20 -60 27 -21 6 -38 16 -38 20 0 5 19 3 41 -5 29 -11 46 -12 54 -5z m115
-17 c13 -12 13 -13 -5 -7 -11 4 -29 14 -40 22 -19 13 -19 14 5 7 14 -4 32 -14
40 -22z m310 17 c0 -5 -5 -10 -11 -10 -5 0 -7 5 -4 10 3 6 8 10 11 10 2 0 4
-4 4 -10z m-170 -25 c14 -8 19 -14 10 -14 -8 0 -24 6 -34 14 -25 19 -9 19 24
0z m145 -23 c-3 -3 -11 0 -18 7 -9 10 -8 11 6 5 10 -3 15 -9 12 -12z m-289
-28 c18 -14 18 -15 -6 -8 -14 3 -32 10 -40 15 -12 7 -11 8 6 9 11 0 29 -7 40
-16z"/>
<path d="M1630 2864 c-19 -6 -36 -17 -38 -23 -3 -9 -7 -9 -18 0 -11 9 -14 8
-14 -3 0 -26 -95 -56 -115 -36 -8 7 -54 -2 -61 -13 -3 -5 0 -9 7 -9 10 0 10
-3 1 -12 -8 -8 -15 -8 -25 0 -11 9 -18 8 -32 -8 -21 -24 -35 -26 -35 -5 0 9
-6 12 -15 9 -10 -4 -15 0 -15 14 0 25 -18 38 -32 24 -7 -7 -6 -17 2 -32 12
-22 12 -22 -36 -15 -57 8 -64 15 -58 67 2 21 -1 38 -6 38 -6 0 -10 -5 -10 -11
0 -6 -11 -25 -25 -43 -14 -18 -25 -45 -25 -59 0 -16 -6 -27 -14 -27 -7 0 -19
-7 -26 -15 -6 -8 -19 -14 -28 -13 -38 3 -52 -3 -52 -22 0 -10 -8 -35 -17 -54
-16 -32 -22 -36 -59 -36 -25 0 -47 -6 -54 -15 -7 -8 -18 -15 -25 -15 -8 0 5
-18 27 -40 23 -22 45 -40 50 -40 5 0 13 -11 18 -25 7 -19 17 -25 42 -26 47 -2
50 -3 76 -17 33 -19 13 -40 -41 -44 -40 -3 -41 -4 -17 -15 14 -6 42 -29 62
-51 l36 -40 9 31 c6 22 22 38 55 56 101 56 128 72 162 95 20 13 59 30 86 37
28 7 50 16 50 21 0 4 16 8 36 8 24 0 33 4 28 12 -5 7 -3 8 5 4 18 -12 78 2 97
22 10 9 19 12 21 7 2 -6 24 -10 50 -9 27 1 51 -4 55 -10 5 -7 8 -4 8 7 0 14 3
15 19 5 15 -9 25 -9 43 0 20 11 20 11 2 7 -12 -3 -26 1 -34 10 -7 9 -8 15 -2
15 15 0 8 33 -9 39 -15 6 -112 71 -141 94 -9 7 -20 25 -23 40 -6 23 -11 26
-34 21 -14 -4 -30 -11 -35 -15 -6 -5 -20 -9 -32 -9 -13 0 -26 -4 -29 -10 -3
-5 -15 -10 -26 -10 -11 0 -17 5 -14 10 8 14 -7 12 -26 -3 -9 -7 -14 -18 -12
-24 3 -8 -4 -13 -17 -13 -16 0 -20 4 -16 16 3 8 2 12 -4 9 -6 -3 -15 -3 -22 1
-12 7 152 57 185 56 9 0 17 5 17 13 0 10 74 35 106 35 8 0 0 -34 -9 -41 -4 -3
25 -20 65 -37 82 -34 94 -29 83 32 l-7 34 -54 -2 c-51 -2 -53 -1 -30 11 14 7
37 14 51 15 15 2 31 10 36 19 7 15 2 18 -39 21 -26 1 -63 -2 -82 -8z m-135
-144 c-3 -5 -14 -10 -23 -9 -14 0 -13 2 3 9 27 11 27 11 20 0z m-192 -30 c3
-12 0 -20 -8 -20 -7 0 -15 9 -18 20 -3 12 0 20 8 20 7 0 15 -9 18 -20z m147
16 c0 -3 -4 -8 -10 -11 -5 -3 -10 -1 -10 4 0 6 5 11 10 11 6 0 10 -2 10 -4z
m-90 -35 c0 -5 -14 -14 -31 -20 -43 -15 -45 -14 -18 9 25 21 49 26 49 11z
m115 -21 c-3 -5 -10 -10 -16 -10 -5 0 -9 5 -9 10 0 6 7 10 16 10 8 0 12 -4 9
-10z m142 -2 c18 -7 33 -17 33 -24 0 -7 8 -10 19 -7 12 3 28 -4 42 -18 21 -21
22 -24 6 -27 -9 -2 -15 -8 -12 -13 10 -15 -35 -10 -51 6 -9 8 -23 15 -33 15
-24 0 -65 45 -58 64 8 19 11 19 54 4z m-192 -8 c7 -11 -41 -33 -58 -27 -13 4
21 37 38 37 8 0 17 -5 20 -10z m5 -90 c0 -12 -28 -20 -45 -14 -20 8 -19 22 3
26 21 5 42 -1 42 -12z"/>
<path d="M1605 2620 c3 -5 10 -10 16 -10 5 0 9 5 9 10 0 6 -7 10 -16 10 -8 0
-12 -4 -9 -10z"/>
<path d="M1337 2840 c-9 -9 -17 -22 -17 -28 0 -18 25 -14 43 6 22 25 -1 45
-26 22z"/>
<path d="M2526 2544 c8 -57 12 -64 29 -58 10 4 15 0 15 -10 0 -9 8 -16 20 -16
27 0 25 -8 -7 -42 -35 -37 -17 -35 26 2 33 28 59 34 33 8 -7 -7 -12 -20 -12
-30 0 -11 -5 -15 -15 -12 -8 4 -15 2 -15 -3 0 -12 -74 -91 -145 -153 -33 -30
-64 -61 -69 -69 -7 -13 -5 -12 11 2 11 9 24 17 30 17 13 0 45 -51 61 -99 7
-19 20 -43 30 -54 11 -13 17 -36 17 -68 0 -28 5 -53 11 -57 14 -9 10 -108 -5
-126 -6 -7 -9 -30 -7 -52 2 -21 1 -43 -4 -49 -16 -21 -20 -64 -7 -77 17 -18
20 -68 4 -68 -7 0 -20 -13 -29 -28 -14 -23 -15 -31 -5 -41 9 -10 8 -14 -5 -22
-10 -6 -18 -16 -18 -23 0 -8 -8 -31 -17 -52 -9 -22 -16 -43 -15 -47 1 -4 -5
-10 -13 -13 -8 -4 -15 -12 -15 -19 0 -6 -13 -31 -30 -53 -16 -23 -30 -44 -30
-48 0 -3 -6 -11 -13 -19 -17 -17 -30 -141 -21 -206 8 -58 13 -61 124 -61 47 0
78 -3 75 -9 -4 -5 -13 -9 -21 -9 -8 0 -14 -4 -14 -9 0 -14 30 -22 49 -12 9 5
23 9 31 9 8 -1 26 0 40 1 24 2 23 3 -9 19 -37 18 -52 42 -28 42 9 0 19 9 22
20 3 11 12 20 19 20 17 0 46 32 46 51 0 8 14 30 30 49 25 29 31 32 40 20 8
-12 10 -9 10 12 0 15 7 31 16 36 9 5 18 18 19 28 7 70 19 107 36 111 14 4 19
15 20 42 2 73 3 76 23 73 15 -3 18 -1 10 10 -17 21 -1 63 23 61 17 -2 22 5 27
39 9 54 13 60 37 47 20 -10 20 -10 4 15 -10 14 -22 23 -27 20 -5 -3 -23 7 -40
22 -23 22 -32 26 -36 15 -6 -18 -98 -107 -117 -115 -8 -3 -15 -1 -15 4 0 5 -8
11 -18 14 -22 7 -123 103 -138 131 -12 24 -3 58 24 89 13 15 14 18 2 12 -8 -4
-3 3 13 16 15 13 27 28 27 33 1 16 74 59 78 45 3 -7 9 -4 17 7 13 17 17 15 56
-25 24 -24 39 -46 34 -50 -14 -10 -17 -32 -5 -32 5 0 21 -11 35 -26 14 -14 30
-22 37 -18 8 5 7 9 -4 13 -13 5 -10 13 18 45 19 22 37 36 41 32 4 -3 1 -12 -5
-18 -16 -16 -15 -28 1 -28 6 0 17 15 23 34 8 27 8 33 -3 29 -20 -8 -43 16 -43
43 0 13 4 24 9 24 14 0 0 48 -20 66 -10 9 -19 30 -19 46 0 15 -4 36 -9 46 -5
9 -14 28 -20 42 -23 50 -42 80 -50 80 -5 0 -8 18 -7 41 0 29 -4 43 -17 50 -10
6 -17 22 -17 39 0 22 -5 30 -18 30 -10 0 -27 8 -38 18 -11 11 -26 22 -34 25
-8 3 -10 6 -4 6 7 1 9 16 4 44 -7 47 -16 67 -31 67 -6 0 -27 11 -47 25 -20 14
-31 25 -24 25 6 0 12 9 12 21 0 14 -5 19 -14 16 -7 -3 -18 -1 -24 5 -8 8 -10
0 -6 -28z m191 -260 c-3 -3 -12 -4 -19 -1 -8 3 -5 6 6 6 11 1 17 -2 13 -5z"/>
<path d="M761 2553 c-1 -14 -8 -23 -18 -24 -14 0 -15 -2 -3 -6 8 -3 23 -13 33
-21 10 -9 27 -16 37 -17 17 -1 16 2 -9 24 -16 14 -32 35 -34 46 -4 18 -5 18
-6 -2z"/>
<path d="M729 2477 c-20 -8 -28 -19 -33 -47 -4 -29 -13 -39 -41 -53 -33 -16
-40 -29 -36 -70 1 -9 -5 -20 -13 -23 -9 -3 -16 -12 -16 -20 0 -8 -5 -14 -11
-14 -5 0 -7 -5 -3 -11 3 -6 0 -15 -7 -20 -20 -13 -57 -11 -61 3 -3 7 -18 13
-34 14 -16 1 -31 3 -33 3 -2 1 2 7 8 15 9 11 8 15 -5 20 -24 9 -27 2 -18 -41
4 -21 8 -40 8 -43 1 -3 5 -11 10 -19 6 -10 3 -20 -12 -32 -25 -20 -28 -29 -8
-29 9 0 12 -7 9 -20 -3 -11 -12 -20 -20 -20 -8 0 -11 -5 -7 -11 3 -6 1 -15 -6
-19 -17 -11 -17 -63 0 -95 11 -21 11 -29 0 -50 -7 -14 -20 -25 -29 -25 -14 -1
-14 -2 2 -14 9 -7 17 -18 17 -25 0 -16 11 -14 24 5 16 21 55 5 102 -40 51 -49
78 -51 125 -9 36 33 69 39 69 13 0 -5 7 -10 16 -10 21 0 -20 -50 -59 -73 -32
-19 -33 -49 -2 -52 11 -1 40 -16 65 -33 49 -33 61 -29 34 13 -19 29 -22 121
-5 153 6 12 11 44 11 72 0 33 6 60 19 78 10 15 40 61 66 102 89 141 96 149
126 155 16 4 33 4 39 0 5 -3 10 -1 10 4 0 6 -8 11 -18 11 -9 0 -26 12 -37 27
-52 70 -91 104 -132 115 -44 11 -55 30 -28 45 12 7 8 15 -22 44 -33 32 -41 35
-64 26z"/>
<path d="M825 2390 c3 -5 13 -10 21 -10 8 0 14 5 14 10 0 6 -9 10 -21 10 -11
0 -17 -4 -14 -10z"/>
<path d="M985 2390 c-19 -8 -19 -9 3 -9 12 -1 22 4 22 9 0 6 -1 10 -2 9 -2 0
-12 -4 -23 -9z"/>
<path d="M2350 2356 c0 -2 7 -9 15 -16 9 -7 15 -8 15 -2 0 5 -7 12 -15 16 -8
3 -15 4 -15 2z"/>
<path d="M961 2314 c0 -11 3 -14 6 -6 3 7 2 16 -1 19 -3 4 -6 -2 -5 -13z"/>
<path d="M455 2300 c-3 -5 1 -10 10 -10 9 0 13 5 10 10 -3 6 -8 10 -10 10 -2
0 -7 -4 -10 -10z"/>
<path d="M980 2290 c0 -15 37 -53 47 -49 6 2 -2 16 -18 30 -16 15 -29 23 -29
19z"/>
<path d="M2845 2141 c-3 -5 -1 -12 5 -16 5 -3 10 1 10 9 0 18 -6 21 -15 7z"/>
<path d="M355 2000 c3 -5 8 -10 11 -10 2 0 4 5 4 10 0 6 -5 10 -11 10 -5 0 -7
-4 -4 -10z"/>
<path d="M2940 1880 c0 -5 5 -10 10 -10 6 0 10 5 10 10 0 6 -4 10 -10 10 -5 0
-10 -4 -10 -10z"/>
<path d="M316 1843 c-13 -13 -5 -23 27 -31 28 -7 32 -13 33 -43 4 -75 13 -171
18 -176 3 -3 19 7 37 21 17 15 38 25 45 22 8 -3 11 0 7 10 -3 7 0 14 5 14 6 0
18 8 27 17 16 15 15 18 -7 35 -12 11 -40 30 -60 43 -20 14 -50 37 -66 53 -32
31 -57 44 -66 35z"/>
<path d="M2655 1749 c-27 -23 -52 -42 -54 -44 -1 -2 3 -11 10 -20 13 -15 20
-21 58 -56 9 -8 25 -26 35 -40 l17 -24 16 23 c8 12 20 22 26 22 5 0 16 8 23
18 13 16 14 16 7 -3 -3 -11 -4 -18 -2 -15 2 3 15 19 29 35 14 17 18 24 10 18
-19 -17 -31 -16 -24 2 8 19 -75 125 -96 124 -3 0 -27 -18 -55 -40z"/>
<path d="M2908 1702 c-14 -28 -15 -39 -5 -51 9 -12 9 -13 0 -7 -16 9 -16 1 -3
-24 8 -15 13 -16 34 -7 l25 12 -20 21 c-17 18 -18 25 -8 48 20 42 -3 50 -23 8z"/>
<path d="M560 1616 c-25 -12 -48 -26 -52 -32 -12 -18 -89 -39 -97 -26 -3 6
-14 10 -23 8 -24 -3 -35 -16 -15 -16 9 0 17 -6 17 -14 0 -8 6 -21 13 -28 17
-18 57 -124 57 -153 0 -12 7 -25 15 -29 8 -3 15 -13 15 -22 0 -9 6 -30 14 -47
8 -18 17 -39 20 -47 3 -8 10 -22 15 -30 10 -17 26 -55 35 -84 5 -15 2 -17 -18
-12 -30 7 -58 -20 -35 -35 14 -9 42 -13 66 -10 19 3 60 -38 48 -47 -13 -9 -11
-49 4 -85 6 -16 11 -34 11 -42 0 -16 25 -26 45 -19 10 4 15 0 15 -10 0 -13 6
-15 26 -10 19 5 32 0 50 -17 14 -13 27 -23 30 -21 15 9 44 -1 49 -18 4 -13 15
-20 33 -20 16 0 46 -15 71 -35 24 -19 50 -35 57 -35 8 0 24 -10 35 -21 20 -20
20 -23 5 -31 -28 -15 -120 -20 -181 -9 -40 7 -62 8 -70 1 -9 -8 -14 -6 -18 4
-5 11 -17 14 -49 10 -23 -3 -45 -9 -48 -13 -3 -4 -39 -7 -80 -6 -51 2 -80 -2
-90 -11 -13 -11 -20 -11 -43 1 -21 11 -33 12 -51 3 -19 -8 -31 -7 -56 6 -23
11 -37 13 -50 6 -13 -7 -21 -7 -25 0 -4 6 -15 8 -25 5 -10 -3 -21 -1 -25 5 -4
6 -17 10 -28 9 -12 -1 -35 3 -50 9 -16 7 -43 12 -60 12 l-32 -1 22 -18 c13
-11 23 -28 23 -39 0 -13 10 -24 30 -30 16 -6 42 -22 57 -36 15 -14 34 -26 41
-26 7 0 29 -7 50 -16 20 -9 61 -17 90 -18 31 -1 57 -7 61 -15 6 -9 19 -11 40
-6 27 6 31 4 31 -14 0 -20 9 -25 36 -22 7 1 15 -6 18 -15 4 -9 13 -14 21 -10
8 3 15 0 15 -6 0 -7 4 -7 13 1 10 8 22 7 45 -1 18 -7 32 -15 32 -18 0 -3 134
-6 297 -7 243 -1 300 1 317 13 11 8 37 14 57 14 22 0 39 6 42 14 4 9 18 13 39
11 18 -2 43 -3 56 -4 12 -1 30 -10 39 -21 23 -26 31 -25 59 6 13 14 28 23 33
20 5 -4 11 0 14 6 3 10 9 10 28 1 41 -19 54 -21 66 -8 10 11 5 16 -25 28 -20
8 -38 11 -40 6 -6 -14 -15 -11 -47 17 -27 23 -30 24 -33 7 -2 -10 -6 -25 -9
-33 -8 -22 -24 33 -29 100 -7 102 -12 235 -8 241 6 11 54 -3 54 -16 0 -11 19
-22 73 -39 10 -3 15 -10 12 -16 -3 -5 2 -10 12 -10 10 0 36 -16 57 -35 31 -27
37 -37 27 -48 -9 -12 -68 -36 -149 -63 -14 -4 10 -30 87 -93 22 -18 39 -38 38
-44 -1 -6 21 -11 53 -13 30 -1 71 -6 90 -10 39 -9 117 -8 201 2 47 5 57 4 63
-11 3 -9 4 -20 1 -25 -6 -10 24 -22 37 -14 5 3 98 5 206 4 252 -2 248 -2 287
14 18 8 80 17 137 21 132 8 145 11 153 35 5 15 14 19 41 18 19 -1 37 2 41 5 3
4 -5 7 -19 7 -14 0 -32 7 -39 16 -10 12 -24 15 -59 10 -25 -4 -64 -8 -88 -11
-24 -2 -50 -9 -58 -16 -17 -14 -155 -18 -151 -4 2 5 26 15 53 20 27 6 76 23
108 38 33 15 65 26 72 23 6 -2 15 -1 20 3 5 5 45 14 89 21 116 19 152 43 139
95 -4 16 -11 21 -25 18 -10 -3 -19 -9 -19 -14 0 -5 -11 -7 -25 -3 -14 3 -25 2
-25 -2 0 -13 -105 -7 -185 11 -38 8 -86 18 -105 21 -19 3 -42 8 -50 12 -28 11
-64 11 -76 1 -8 -6 -19 -7 -31 -1 -19 10 -105 32 -125 32 -6 0 -1 -11 11 -24
12 -13 18 -26 14 -29 -5 -3 -47 -9 -93 -12 -74 -5 -85 -4 -101 14 -21 22 -25
51 -8 51 6 0 9 7 6 15 -7 16 2 24 35 30 13 3 24 9 26 14 2 6 9 8 16 5 8 -3 16
2 19 10 4 9 12 16 20 16 18 0 67 23 67 33 0 4 -19 8 -42 9 -24 1 -54 2 -68 3
-14 1 -50 2 -80 3 l-55 2 0 113 c0 108 7 143 25 132 8 -5 31 55 24 64 -7 8
-24 -13 -45 -53 -12 -24 -39 -62 -60 -85 -39 -41 -148 -121 -166 -121 -5 0
-16 -11 -23 -25 -7 -14 -19 -25 -27 -25 -7 0 -35 -10 -63 -22 -42 -18 -48 -24
-37 -36 10 -13 7 -14 -24 -8 -24 4 -46 1 -68 -10 -29 -15 -35 -15 -73 1 -23 9
-54 25 -69 36 -30 21 -49 25 -49 9 0 -5 -9 -10 -20 -10 -11 0 -23 -7 -26 -14
-9 -23 -88 -15 -116 11 -25 23 -101 63 -118 63 -6 0 -31 14 -55 30 -24 17 -48
30 -54 30 -6 0 -11 4 -11 9 0 5 -13 14 -29 20 -15 7 -52 35 -82 62 -78 72 -95
64 -79 -36 10 -62 17 -78 31 -70 5 4 9 -1 9 -10 0 -10 -7 -15 -17 -13 -11 2
-22 22 -32 61 -15 55 -27 67 -41 36 -4 -8 -12 -24 -18 -36 -16 -30 -15 -90 1
-96 6 -2 9 -8 5 -12 -17 -18 -36 7 -43 54 l-7 51 -36 -28 c-21 -15 -46 -35
-57 -45 -10 -10 -25 -15 -32 -13 -7 3 -15 0 -19 -6 -5 -7 -2 -8 6 -3 8 5 11 4
6 -3 -7 -11 -36 -6 -36 7 0 4 11 18 24 30 14 13 26 33 28 45 2 13 10 20 20 20
10 -1 16 3 15 10 -1 6 8 11 20 11 11 0 25 4 30 9 4 5 3 6 -4 2 -6 -3 -14 -2
-17 3 -6 10 118 131 134 131 6 0 10 5 10 10 0 6 -7 10 -15 10 -18 0 -83 85
-130 174 -49 92 -67 144 -56 165 6 11 4 23 -5 36 -8 10 -14 13 -14 7 0 -16
-43 6 -80 40 -14 13 -39 32 -55 44 l-30 21 -45 -21z m486 -622 c4 -32 3 -46
-4 -39 -11 12 -23 81 -15 89 10 10 13 1 19 -50z m1756 -371 c43 -9 78 -19 78
-23 0 -13 -200 -32 -214 -20 -8 5 -21 8 -30 4 -12 -4 -16 0 -16 15 0 16 6 21
24 21 14 0 28 5 31 10 9 14 38 13 127 -7z"/>
<path d="M757 1570 c3 -12 6 -19 7 -18 1 2 8 11 15 21 12 15 11 17 -7 17 -15
0 -19 -5 -15 -20z"/>
<path d="M487 1194 c-8 -8 1 -24 14 -24 5 0 9 7 9 15 0 15 -12 20 -23 9z"/>
<path d="M1007 1113 c-10 -9 -9 -23 2 -23 5 0 11 7 15 15 5 15 -5 20 -17 8z"/>
<path d="M1620 657 c0 -29 2 -56 5 -59 6 -5 105 25 105 32 0 3 -25 22 -55 43
l-55 38 0 -54z"/>
<path d="M1724 605 c-24 -18 -7 -19 26 0 16 9 19 14 9 15 -8 0 -24 -7 -35 -15z"/>
<path d="M3150 420 c0 -5 7 -7 15 -4 8 4 15 8 15 10 0 2 -7 4 -15 4 -8 0 -15
-4 -15 -10z"/>
</g>
</svg>
