<?xml version="1.0" standalone="no"?>
<!DOCTYPE svg PUBLIC "-//W3C//DTD SVG 20010904//EN"
 "http://www.w3.org/TR/2001/REC-SVG-20010904/DTD/svg10.dtd">
<svg version="1.0" xmlns="http://www.w3.org/2000/svg"
 width="512.000000pt" height="512.000000pt" viewBox="0 0 512.000000 512.000000"
 preserveAspectRatio="xMidYMid meet">
<metadata>
Created by potrace 1.14, written by Peter Selinger 2001-2017
</metadata>
<g transform="translate(0.000000,512.000000) scale(0.100000,-0.100000)"
fill="#000000" stroke="none">
<path d="M3470 4959 c-85 -9 -113 -26 -144 -86 -13 -25 -16 -63 -16 -176 l0
-145 -28 -11 c-15 -6 -47 -25 -71 -40 l-43 -29 -119 69 c-139 81 -184 92 -245
61 -43 -22 -42 -20 -243 -367 l-98 -170 -339 -3 -339 -2 -25 52 c-33 71 -130
167 -203 202 -184 86 -397 45 -527 -102 -60 -68 -60 -68 -87 -135 -46 -112
-41 -245 12 -361 34 -74 133 -175 202 -206 l53 -24 0 -312 0 -312 -103 -4
c-86 -3 -107 -7 -133 -25 -54 -39 -64 -74 -64 -235 l-1 -143 -72 -41 -72 -42
-60 33 c-194 105 -224 117 -270 112 -24 -3 -55 -13 -69 -22 -15 -10 -86 -121
-175 -274 -193 -333 -195 -337 -187 -394 9 -61 38 -89 174 -166 l112 -64 0
-87 0 -86 -125 -73 c-106 -62 -129 -80 -146 -113 -34 -66 -22 -105 91 -299 55
-95 100 -173 100 -174 0 -14 129 -215 149 -232 29 -26 78 -38 119 -30 15 3 86
37 156 74 l129 69 73 -40 73 -41 1 -145 c0 -131 2 -149 23 -184 42 -75 51 -77
425 -77 290 0 336 2 364 17 76 39 88 71 88 247 l1 142 73 41 73 40 118 -68
c196 -115 240 -107 342 64 34 56 74 126 89 153 15 28 45 78 66 113 21 34 38
65 38 67 0 3 11 23 25 45 l25 40 338 0 337 0 23 -51 c43 -92 143 -179 266
-228 47 -19 168 -25 227 -11 353 83 478 503 225 755 -34 34 -85 72 -113 85
l-53 25 0 313 0 312 91 0 c104 0 143 14 180 63 23 30 24 41 27 187 l4 155 77
41 77 41 135 -74 c145 -80 171 -86 239 -52 43 22 36 11 225 341 6 10 40 70 77
134 90 155 97 214 35 276 -14 14 -75 53 -136 87 l-111 63 0 88 c0 86 1 89 28
103 59 30 204 118 216 130 28 27 44 73 42 117 -2 38 -28 89 -159 315 -86 149
-170 284 -186 302 -22 23 -43 34 -77 39 -51 7 -68 0 -260 -104 l-72 -39 -38
24 c-22 13 -56 31 -76 39 l-37 16 -3 156 c-3 144 -5 160 -25 188 -43 61 -62
64 -375 67 -156 1 -308 -1 -338 -4z m-815 -1230 l55 -31 0 -87 0 -87 -110 -63
c-126 -72 -141 -84 -164 -128 -32 -63 -24 -86 107 -315 218 -379 216 -376 265
-399 59 -29 105 -20 206 40 45 26 97 57 117 68 l37 21 43 -29 c24 -15 56 -34
71 -40 l28 -11 0 -138 c0 -147 9 -190 47 -228 32 -32 73 -42 170 -42 l83 0 0
-313 0 -312 -52 -25 c-86 -41 -185 -150 -212 -232 -5 -17 -34 -18 -416 -18
l-410 0 -55 31 -55 31 0 88 0 88 121 68 c190 108 208 165 105 334 -8 14 -48
81 -87 150 -97 169 -162 281 -179 307 -19 30 -82 63 -119 63 -35 0 -83 -22
-211 -98 l-85 -51 -30 20 c-16 11 -49 30 -72 42 l-43 21 0 143 c0 158 -8 189
-63 233 -27 22 -42 25 -134 28 l-103 4 0 313 c0 313 0 314 22 321 78 25 188
128 230 216 l23 48 170 2 c93 2 277 2 408 0 l238 -2 54 -31z"/>
</g>
</svg>
